<svg width="32" height="32" viewBox="0 0 32 32" fill="none" xmlns="http://www.w3.org/2000/svg">
<path fill-rule="evenodd" clip-rule="evenodd" d="M16.0057 2.00781C23.7364 2.00781 30.0058 8.27722 30.0058 16.0079C30.0058 23.7386 23.7364 30.008 16.0057 30.008C8.27503 30.008 2.00562 23.7386 2.00562 16.0079C2.00562 8.27722 8.27503 2.00781 16.0057 2.00781ZM13.0984 20.5552L9.67084 17.1248C9.08691 16.5405 9.08679 15.5877 9.67084 15.0036C10.255 14.4195 11.2121 14.4232 11.792 15.0036L14.2084 17.4219L20.2196 11.4107C20.8038 10.8265 21.7567 10.8265 22.3408 11.4107C22.925 11.9947 22.9241 12.9485 22.3408 13.5318L15.2673 20.6053C14.6839 21.1887 13.7302 21.1895 13.1461 20.6053C13.1297 20.5889 13.1139 20.5722 13.0984 20.5552Z" fill="#00BA00"/>
<path fill-rule="evenodd" clip-rule="evenodd" d="M16.0057 2.00781C23.7364 2.00781 30.0058 8.27722 30.0058 16.0079C30.0058 23.7386 23.7364 30.008 16.0057 30.008C8.27503 30.008 2.00562 23.7386 2.00562 16.0079C2.00562 8.27722 8.27503 2.00781 16.0057 2.00781ZM13.0984 20.5552L9.67084 17.1248C9.08691 16.5405 9.08679 15.5877 9.67084 15.0036C10.255 14.4195 11.2121 14.4232 11.792 15.0036L14.2084 17.4219L20.2196 11.4107C20.8038 10.8265 21.7567 10.8265 22.3408 11.4107C22.925 11.9947 22.9241 12.9485 22.3408 13.5318L15.2673 20.6053C14.6839 21.1887 13.7302 21.1895 13.1461 20.6053C13.1297 20.5889 13.1139 20.5722 13.0984 20.5552Z" fill="url(#paint0_linear_2122_1819)"/>
<defs>
<linearGradient id="paint0_linear_2122_1819" x1="1.98809" y1="5.26226" x2="30.0536" y2="10.1435" gradientUnits="userSpaceOnUse">
<stop stop-color="#FF7A1B"/>
<stop offset="1" stop-color="#FB4F05"/>
</linearGradient>
</defs>
</svg>
